         <svg width="146" height="22" fill="#fff" viewBox="0 0 146 22"><path fill="#FFF" fill-rule="evenodd" d="M19.288 0c4.539 0 8.458 3.061 9.59 7.465 2.759 1.066 4.466 3.737 4.466 7.016 0 4.035-3.028 7.208-7.09 7.496v.016l-.312.007H7.256C3.052 21.988 0 18.826 0 14.481c0-2.942 1.643-5.528 4.297-6.774 1.41-2.931 4.392-4.818 7.628-4.818.129 0 .257.003.385.01A9.799 9.799 0 0119.288 0zm121.741 8.396c2.764 0 4.599 1.506 4.599 1.506l-1.55 2.285s-1.395-1.065-3.049-1.065c-1.162 0-2.221.416-2.221 1.169 0 .753.826.935 2.893 1.376 2.428.52 4.16 1.324 4.16 3.869 0 2.103-2.223 3.79-5.348 3.79-3.591 0-5.529-2.232-5.529-2.232l1.731-2.26s1.628 1.766 3.694 1.766c1.266 0 2.325-.363 2.325-1.116 0-.805-.568-.96-2.428-1.35-2.428-.52-4.547-1.558-4.547-3.895 0-1.921 1.912-3.843 5.27-3.843zm-41.41 0c3.643 0 6.536 2.83 6.536 6.466 0 3.609-2.893 6.465-6.536 6.465-3.642 0-6.536-2.856-6.536-6.465 0-3.636 2.894-6.466 6.536-6.466zm34.512 6.174c.007.204.02.587.015.993l-.002.175-8.877.342c.268 1.082 1.58 2.442 3.516 2.377 1.886-.063 3.02-1.066 3.266-1.306l.05-.051 1.626 2.284s-1.878 1.829-4.848 1.928c-3.718.123-6.678-2.636-6.797-6.243-.118-3.607 2.395-6.549 5.933-6.666 3.356-.112 5.993 2.378 6.118 6.167zm-62.553 0c.007.204.02.587.016.993l-.003.175-8.877.342c.269 1.082 1.58 2.442 3.517 2.377 1.971-.066 3.121-1.16 3.293-1.334l.022-.023 1.626 2.284s-1.878 1.829-4.847 1.928c-3.718.123-6.679-2.636-6.797-6.243-.12-3.607 2.395-6.549 5.932-6.666 3.357-.112 5.993 2.378 6.118 6.167zm15.848-6.174c2.48 0 4.288 1.74 4.288 4.7v7.92h-3.1V13.9c0-1.688-.645-2.597-2.195-2.597-1.628 0-2.403 1.584-2.403 1.584v8.127h-3.1V13.9c0-1.688-.646-2.597-2.196-2.597-1.628 0-2.402 1.584-2.402 1.584v8.127h-3.1V8.708h2.893v1.791l.036-.062c.209-.35 1.334-2.04 3.58-2.04 2.946 0 3.798 2.154 3.798 2.154s1.034-2.155 3.901-2.155zm26.376 0c1.11 0 2.118.39 2.118.39l-1.085 2.804s-.568-.286-1.473-.286c-1.886 0-2.738 1.662-2.738 1.662v8.05h-3.1V8.707h2.945v1.791s1.06-2.103 3.333-2.103zm6.406.312v12.307h-3.1V8.708h3.1zm-77.06-5.323l5.642 9.368a.288.288 0 00.493 0l5.645-9.368h2.868v17.63h-3.1V9.357l-3.993 6.627c-.258.394-.767.944-1.665.944-.897 0-1.407-.55-1.664-.944L43.38 9.357v11.658h-3.1V3.385h2.867zm-17.287 6.57c-2.829 0-5.152 2.404-7.02 4.336l-2.635 2.7c-.725.73-1.399 1.4-2.1 2.016h5.115a47.603 47.603 0 01-1.608-1.534l-.034-.034 1.975-2.081.148.137c1.664 1.645 3.548 3.51 6.006 3.51 2.482 0 4.502-2.03 4.502-4.524 0-1.456-.552-2.718-1.555-3.554A4.238 4.238 0 0026.482 10a4.784 4.784 0 00-.621-.044zm-18.229 0a4.52 4.52 0 00-3.612 1.842 4.49 4.49 0 00-.886 2.684c0 2.62 1.827 4.523 4.345 4.523.494 0 1-.075 1.502-.222a6.978 6.978 0 001.274-.531c1.61-.86 3-2.294 4.226-3.559l.206-.212-.025-.023c-.329-.306-.656-.63-1.003-.972-1.678-1.662-3.564-3.53-6.027-3.53zm91.987 1.35c-2.092 0-3.384 1.635-3.384 3.557 0 1.92 1.292 3.557 3.384 3.557 2.093 0 3.384-1.636 3.384-3.557 0-1.922-1.291-3.558-3.384-3.558zm-34.05-.07l-.216.003c-1.789.072-2.588 1.401-2.694 2.475l-.01.128 5.678-.227c-.084-.98-.92-2.24-2.55-2.368l-.208-.01zm62.553 0l-.216.003c-1.789.072-2.588 1.401-2.695 2.475l-.01.128 5.678-.227c-.083-.98-.92-2.24-2.55-2.368l-.207-.01zM19.288 2.994c-1.38 0-2.716.41-3.86 1.184a6.97 6.97 0 00-1.792 1.76l-.124.175-.208-.054a5.417 5.417 0 00-2.56-.046 5.425 5.425 0 00-2.15 1.009c3.12.41 5.545 2.858 7.705 5.038l.37.374.3-.301c2.417-2.43 4.912-4.94 8.578-5.156a6.89 6.89 0 00-6.26-3.983zm99.37.392c1.137 0 2.04.908 2.04 2.051 0 1.142-.903 2.051-2.04 2.051s-2.041-.909-2.041-2.051c0-1.143.904-2.051 2.041-2.051z"></path></svg>
